<svg aria-hidden="true" style="position: absolute; width: 0; height: 0; overflow: hidden;" version="1.1" xmlns="http://www.w3.org/2000/svg" xmlns:xlink="http://www.w3.org/1999/xlink">
<defs>
<symbol id="icon-bench" viewBox="0 0 32 32">
<path fill="#d4c17f" style="fill: var(--color1, #d4c17f)" d="M29.333 18.133c0.295 0 0.534-0.239 0.534-0.533v-2.133c0-0.294-0.238-0.534-0.534-0.534h-2.666v-0.533c0-0.295-0.239-0.533-0.533-0.533s-0.533 0.239-0.533 0.533v0.533h-14.933v-0.533c-0.008-0.288-0.244-0.519-0.533-0.519s-0.525 0.231-0.533 0.518l-0 0.001v0.533h-2.667c-0.294 0-0.533 0.239-0.533 0.534v2.133c0 0.294 0.239 0.533 0.533 0.533h22.4zM7.467 17.067v-1.067h21.333v1.067h-21.333zM19.2 11.733c-0.862 0-1.42 0.656-1.48 0.731-0.074 0.090-0.119 0.207-0.119 0.334 0 0.165 0.075 0.312 0.193 0.409l0.001 0.001c0.092 0.076 0.211 0.122 0.34 0.122 0.164 0 0.31-0.073 0.409-0.189l0.001-0.001c0.002-0.004 0.291-0.34 0.656-0.34s0.653 0.336 0.653 0.336c0.098 0.121 0.247 0.197 0.414 0.197 0.128 0 0.246-0.045 0.337-0.12l-0.001 0.001c0.121-0.098 0.197-0.247 0.197-0.414 0-0.128-0.045-0.245-0.12-0.337l0.001 0.001c-0.061-0.075-0.618-0.731-1.48-0.731z"></path>
<path fill="#d4c17f" style="fill: var(--color1, #d4c17f)" d="M29.333 22.4c0.295 0 0.534-0.239 0.534-0.533v-2.134c0-0.294-0.238-0.533-0.534-0.533h-2.666v-0.533c0-0.295-0.239-0.533-0.533-0.533s-0.533 0.239-0.533 0.533v0.533h-14.933v-0.533c-0.008-0.288-0.244-0.519-0.533-0.519s-0.525 0.231-0.533 0.518l-0 0.001v0.533h-2.667c-0.294 0-0.533 0.239-0.533 0.533v2.134c0 0.294 0.239 0.533 0.533 0.533h22.4zM7.467 21.333v-1.066h21.333v1.066h-21.333zM21.986 10.469c0.098 0.121 0.247 0.198 0.414 0.198 0.128 0 0.246-0.045 0.337-0.121l-0.001 0.001c0.121-0.098 0.197-0.247 0.197-0.414 0-0.128-0.045-0.245-0.12-0.337l0.001 0.001c-0.061-0.075-0.618-0.73-1.481-0.73s-1.42 0.655-1.48 0.73c-0.074 0.090-0.119 0.207-0.119 0.335 0 0.165 0.075 0.312 0.193 0.409l0.001 0.001c0.226 0.188 0.56 0.154 0.749-0.068 0.003-0.004 0.292-0.341 0.656-0.341s0.653 0.336 0.653 0.336zM0.536 6.987c0.027 0.272 0.256 0.48 0.531 0.48h3.2c0.274 0 0.503-0.208 0.53-0.48l0.534-5.334c0.002-0.016 0.003-0.034 0.003-0.053 0-0.294-0.239-0.533-0.533-0.533-0 0-0 0-0 0h-1.6v-0.534c-0.011-0.286-0.246-0.513-0.533-0.513s-0.522 0.227-0.533 0.512l-0 0.001v0.534h-1.6c-0 0-0 0-0.001 0-0.294 0-0.533 0.239-0.533 0.533 0 0.019 0.001 0.038 0.003 0.056l-0-0.002 0.533 5.334zM4.211 2.133l-0.427 4.267h-2.235l-0.426-4.267h3.088z"></path>
<path fill="#d4c17f" style="fill: var(--color1, #d4c17f)" d="M14.933 12.267c0 0.596 0.244 1.151 0.686 1.561 0.095 0.089 0.222 0.143 0.363 0.143 0.154 0 0.293-0.066 0.39-0.171l0-0c0.2-0.216 0.188-0.554-0.028-0.754-0.212-0.193-0.345-0.47-0.345-0.778v-0c0.003-0.455 0.29-0.843 0.693-0.994l0.007-0.002c0.205-0.078 0.348-0.273 0.348-0.501 0-0.154-0.065-0.293-0.17-0.391l-0-0c-0.212-0.193-0.344-0.47-0.344-0.778 0-0 0-0 0-0v0c0-0.555 0.437-1.019 0.994-1.057 0.279-0.019 0.497-0.25 0.497-0.532 0-0.139-0.053-0.266-0.141-0.361l0 0c-0.175-0.188-0.283-0.44-0.285-0.717v-0c0-0.554 0.437-1.018 0.994-1.057 0.279-0.019 0.498-0.25 0.498-0.532 0-0.139-0.053-0.266-0.141-0.361l0 0c-0.175-0.188-0.282-0.44-0.284-0.717v-0c0-0.477 0.325-0.898 0.789-1.024 0.229-0.063 0.394-0.269 0.394-0.515 0-0.072-0.014-0.14-0.040-0.202l0.001 0.004c-0.049-0.117-0.078-0.254-0.079-0.396v-0c0.001-0.589 0.478-1.066 1.067-1.066h0c0.589 0.001 1.066 0.478 1.067 1.066v0c0 0.133-0.027 0.266-0.078 0.397-0.024 0.059-0.038 0.127-0.038 0.199 0 0.245 0.165 0.451 0.391 0.514l0.004 0.001c0.456 0.126 0.787 0.536 0.789 1.023v0c-0.002 0.278-0.11 0.529-0.285 0.718l0.001-0.001c-0.086 0.095-0.139 0.221-0.139 0.36 0 0.282 0.218 0.512 0.495 0.532l0.002 0c0.557 0.039 0.994 0.503 0.994 1.057-0.002 0.278-0.109 0.53-0.285 0.718l0.001-0.001c-0.086 0.095-0.139 0.221-0.139 0.36 0 0.282 0.218 0.512 0.495 0.532l0.002 0c0.557 0.038 0.994 0.502 0.994 1.057 0 0.296-0.122 0.573-0.345 0.779-0.105 0.098-0.17 0.237-0.17 0.391 0 0.228 0.143 0.423 0.345 0.5l0.004 0.001c0.41 0.154 0.697 0.541 0.7 0.996v0c0 0.294 0.239 0.533 0.533 0.533s0.533-0.239 0.533-0.533v0c-0.002-0.665-0.309-1.259-0.788-1.649l-0.004-0.003c0.163-0.292 0.258-0.64 0.258-1.010 0-0.002 0-0.003 0-0.005v0c0-0.834-0.491-1.567-1.206-1.914 0.089-0.223 0.14-0.482 0.14-0.753v-0c0-0.834-0.491-1.567-1.207-1.914 0.089-0.223 0.14-0.482 0.14-0.753v-0c-0.002-0.791-0.435-1.48-1.076-1.846l-0.010-0.006c0.012-0.084 0.018-0.18 0.018-0.279 0-1.179-0.954-2.134-2.133-2.136h-0c-1.178 0.002-2.132 0.957-2.132 2.136 0 0.098 0.007 0.195 0.020 0.29l-0.001-0.011c-0.651 0.372-1.084 1.061-1.086 1.852v0c0 0.259 0.048 0.514 0.14 0.753-0.716 0.347-1.207 1.080-1.207 1.914 0 0.259 0.048 0.514 0.14 0.753-0.716 0.347-1.206 1.080-1.206 1.914 0 0.361 0.090 0.707 0.258 1.015-0.483 0.393-0.789 0.986-0.792 1.651v0z"></path>
<path fill="#d4c17f" style="fill: var(--color1, #d4c17f)" d="M20.064 7.424c0.060 0.025 0.13 0.040 0.203 0.040 0.221 0 0.41-0.134 0.492-0.324l0.001-0.003c0.014-0.033 0.027-0.060 0.042-0.086l-0.002 0.004c0.015 0.027 0.029 0.054 0.039 0.080 0.086 0.187 0.271 0.315 0.487 0.315 0.295 0 0.534-0.239 0.534-0.534 0-0.065-0.012-0.128-0.033-0.186l0.001 0.004c-0.059-0.144-0.384-0.866-1.028-0.866s-0.968 0.722-1.028 0.866c-0.025 0.059-0.039 0.128-0.039 0.2 0 0.221 0.135 0.411 0.327 0.491l0.003 0.001zM31.467 30.933h-8.534c-0.295 0-0.533 0.239-0.533 0.533s0.239 0.533 0.533 0.533h8.534c0.295 0 0.533-0.239 0.533-0.533s-0.239-0.533-0.533-0.533v0zM31.467 23.467h-4.8v-0.534c0-0.295-0.239-0.533-0.533-0.533s-0.533 0.239-0.533 0.533v0.534h-14.933v-0.534c-0.008-0.288-0.244-0.519-0.533-0.519s-0.525 0.231-0.533 0.518l-0 0.001v0.534h-4.8c-0.294 0-0.533 0.239-0.533 0.533v2.133c0 0.294 0.239 0.534 0.533 0.534h1.6v2.666c0.008 0.288 0.244 0.519 0.533 0.519s0.525-0.231 0.533-0.518l0-0.001v-2.666h21.333v2.666c0 0.295 0.239 0.533 0.533 0.533s0.533-0.239 0.533-0.533v-2.666h1.6c0.295 0 0.533-0.239 0.533-0.534v-2.133c0-0.294-0.238-0.533-0.533-0.533zM30.933 25.6h-25.6v-1.067h25.6v1.067z"></path>
<path fill="#d4c17f" style="fill: var(--color1, #d4c17f)" d="M8 30.933h-4.8v-21.866c-0.008-0.288-0.244-0.519-0.533-0.519s-0.525 0.231-0.533 0.518l-0 0.001v21.866h-1.6c-0.288 0.008-0.519 0.244-0.519 0.533s0.231 0.525 0.518 0.533l0.001 0h7.467c0.288-0.008 0.519-0.244 0.519-0.533s-0.231-0.525-0.518-0.533l-0.001-0zM20.8 30.933h-1.067c-0.295 0-0.533 0.239-0.533 0.533s0.239 0.533 0.533 0.533h1.067c0.295 0 0.533-0.239 0.533-0.533s-0.239-0.533-0.533-0.533v0zM16.533 30.933h-5.333c-0.288 0.008-0.519 0.244-0.519 0.533s0.231 0.525 0.518 0.533l0.001 0h5.333c0.295 0 0.533-0.239 0.533-0.533s-0.239-0.533-0.533-0.533v0z"></path>
</symbol>
<symbol id="icon-bicycle" viewBox="0 0 32 32">
<path fill="#d4c17f" style="fill: var(--color1, #d4c17f)" d="M8 27.2h-7.467c-0.295 0-0.533 0.239-0.533 0.533s0.239 0.533 0.533 0.533h7.467c0.295 0 0.534-0.239 0.534-0.534s-0.239-0.534-0.534-0.534v0zM6.4 26.133c3.529 0 6.4-2.872 6.4-6.4 0-1.767-0.704-3.412-1.984-4.633-0.093-0.082-0.216-0.131-0.351-0.131-0.295 0-0.534 0.239-0.534 0.534 0 0.143 0.056 0.274 0.148 0.369l-0-0c1.019 0.966 1.654 2.33 1.654 3.842 0 0.007 0 0.013-0 0.020v-0.001c0 2.941-2.392 5.333-5.333 5.333s-5.333-2.392-5.333-5.333c0-2.942 2.392-5.334 5.333-5.334 0.294 0 0.533-0.239 0.533-0.533s-0.239-0.533-0.533-0.533v0c-3.529 0-6.4 2.871-6.4 6.4s2.871 6.4 6.4 6.4z"></path>
<path fill="#d4c17f" style="fill: var(--color1, #d4c17f)" d="M9.067 11.199h0.27l-3.081 7.481c-0.523 0.072-0.921 0.515-0.923 1.052v0c0 0.589 0.478 1.067 1.067 1.067h0c0.589-0.001 1.066-0.478 1.067-1.066v-0c0-0.244-0.086-0.466-0.224-0.646l3.010-7.308 3.375 4.901c0.097 0.141 0.258 0.232 0.439 0.232 0.113 0 0.218-0.035 0.304-0.096l-0.002 0.001c0.243-0.168 0.304-0.499 0.136-0.742l-3.358-4.876h1.119c0.882 0 1.6-0.718 1.6-1.6s-0.718-1.6-1.6-1.6h-3.2c-0.295 0-0.533 0.238-0.533 0.534v2.133c0 0.294 0.238 0.533 0.533 0.533zM9.6 9.066h2.667c0.288 0.008 0.519 0.244 0.519 0.533s-0.231 0.525-0.518 0.533l-0.001 0h-2.667v-1.067zM25.067 13.866c0 0.294 0.238 0.533 0.533 0.533 2.941 0 5.333 2.392 5.333 5.334s-2.392 5.333-5.333 5.333-5.333-2.393-5.333-5.333c0-1.598 0.708-3.099 1.943-4.118 0.117-0.099 0.191-0.245 0.191-0.409 0-0.295-0.239-0.534-0.534-0.534-0.128 0-0.246 0.045-0.338 0.12l0.001-0.001c-1.427 1.18-2.33 2.95-2.33 4.932 0 0.003 0 0.006 0 0.008v-0c0 3.529 2.871 6.4 6.4 6.4s6.4-2.871 6.4-6.4-2.871-6.4-6.4-6.4c-0.295 0-0.533 0.239-0.533 0.534zM16.533 27.2h-5.333c-0.295 0-0.533 0.239-0.533 0.533s0.239 0.533 0.533 0.533h5.333c0.295 0 0.533-0.239 0.533-0.533s-0.239-0.533-0.533-0.533v0z"></path>
<path fill="#d4c17f" style="fill: var(--color1, #d4c17f)" d="M16.533 17.142v-1.676c0.295 0 0.533-0.239 0.533-0.533s-0.239-0.533-0.533-0.533h-1.066c-0.295 0-0.533 0.239-0.533 0.533s0.239 0.533 0.533 0.533v0 1.676c-0.918 0.238-1.6 1.066-1.6 2.057s0.682 1.819 1.6 2.058v1.676c-0.294 0-0.533 0.239-0.533 0.533s0.239 0.533 0.533 0.533h1.066c0.294 0 0.533-0.239 0.533-0.533s-0.239-0.533-0.533-0.533v0-1.676c0.918-0.239 1.6-1.066 1.6-2.058s-0.682-1.819-1.6-2.058zM16 20.266c-0.589-0.001-1.066-0.478-1.067-1.067v-0c0.001-0.589 0.478-1.066 1.067-1.066h0c0.589 0.001 1.066 0.478 1.067 1.066v0c-0.001 0.589-0.478 1.066-1.067 1.067h-0zM24.778 19.061c-0.151 0.181-0.244 0.416-0.245 0.672v0c0.001 0.589 0.478 1.066 1.067 1.066h0c0.589-0.001 1.066-0.478 1.067-1.066v-0c0-0.528-0.387-0.964-0.89-1.049l-2.407-6.418h3.808c0.638 0 1.010-0.51 1.079-0.962l0.533-2.667c0.007-0.032 0.011-0.068 0.011-0.106 0-0.294-0.238-0.532-0.532-0.532-0 0-0 0-0.001 0h-4.8c-0.295 0-0.533 0.239-0.533 0.533s0.239 0.533 0.533 0.533v0h4.149l-0.408 2.040c-0.008 0.037-0.031 0.089-0.031 0.093h-4.208l-1.67-4.454c-0.001-0.002-0.002-0.003-0.003-0.006s-0.001-0.004-0.001-0.006l-1.067-2.667c-0.083-0.193-0.272-0.326-0.492-0.326-0.295 0-0.534 0.239-0.534 0.534 0 0.068 0.013 0.133 0.036 0.192l-0.001-0.004 0.972 2.427-2.006 3.51c-0.045 0.076-0.071 0.168-0.071 0.266 0 0.294 0.238 0.532 0.532 0.532 0 0 0.001 0 0.001 0h-0c0 0 0.001 0 0.001 0 0.197 0 0.369-0.107 0.461-0.266l0.001-0.003 1.57-2.747 1.283 3.422-4.064 4.572c-0.084 0.094-0.135 0.218-0.135 0.355 0 0.295 0.239 0.533 0.533 0.533 0.158 0 0.3-0.069 0.398-0.178l0-0.001 3.691-4.152 2.372 6.326zM31.467 27.2h-8.534c-0.295 0-0.533 0.239-0.533 0.533s0.239 0.533 0.533 0.533h8.534c0.295 0 0.533-0.239 0.533-0.533s-0.239-0.533-0.533-0.533v0zM20.8 27.2h-1.067c-0.295 0-0.533 0.239-0.533 0.533s0.239 0.533 0.533 0.533h1.067c0.295 0 0.534-0.239 0.534-0.534s-0.239-0.534-0.534-0.534v0z"></path>
</symbol>
<symbol id="icon-building" viewBox="0 0 32 32">
<path fill="#d4c17f" style="fill: var(--color1, #d4c17f)" d="M22.933 29.867h-14.933c-0.294 0-0.533 0.239-0.533 0.533v1.067c0.011 0.286 0.246 0.513 0.533 0.513s0.522-0.227 0.533-0.512l0-0.001v-0.534h14.4c0.286-0.011 0.513-0.246 0.513-0.533s-0.227-0.522-0.512-0.533l-0.001-0zM11.733 13.333c0 0.294 0.239 0.534 0.534 0.534h2.133c0.294 0 0.533-0.239 0.533-0.534v-3.2c0-0.294-0.239-0.533-0.533-0.533h-2.133c-0.294 0-0.534 0.239-0.534 0.533v3.2zM12.8 10.667h1.067v2.133h-1.067v-2.133zM6.933 6.4h-6.4c-0.294 0-0.533 0.239-0.533 0.533v10.667c0.008 0.288 0.244 0.519 0.533 0.519s0.525-0.231 0.533-0.518l0-0.001v-10.133h5.866c0.288-0.008 0.519-0.244 0.519-0.533s-0.231-0.525-0.518-0.533l-0.001-0zM25.6 26.133c0 0.294 0.239 0.534 0.533 0.534h2.134c0.294 0 0.533-0.239 0.533-0.534v-3.2c0-0.294-0.239-0.533-0.533-0.533h-2.134c-0.294 0-0.533 0.239-0.533 0.533v3.2zM26.667 23.467h1.066v2.133h-1.066v-2.133zM2.667 19.2c-2.636 0-2.667 6.864-2.667 6.933 0 1.288 0.918 2.365 2.133 2.613v2.721c0.008 0.288 0.244 0.519 0.533 0.519s0.525-0.231 0.533-0.518l0-0.001v-2.721c1.215-0.248 2.133-1.325 2.133-2.613 0-0.069-0.030-6.933-2.666-6.933zM2.667 27.733c-0.882 0-1.6-0.718-1.6-1.6 0-2.657 0.714-5.866 1.6-5.866s1.6 3.21 1.6 5.866c0 0.882-0.718 1.6-1.6 1.6zM5.867 16h-2.134c-0.294 0-0.533 0.239-0.533 0.533v1.067c0.008 0.288 0.244 0.519 0.533 0.519s0.525-0.231 0.533-0.518l0-0.001v-0.533h1.066v2.666c0.008 0.288 0.244 0.519 0.533 0.519s0.525-0.231 0.533-0.518l0-0.001v-3.2c0-0.294-0.239-0.533-0.533-0.533zM26.133 13.867h2.134c0.294 0 0.533-0.239 0.533-0.534v-3.2c0-0.294-0.239-0.533-0.533-0.533h-2.134c-0.294 0-0.533 0.239-0.533 0.533v3.2c0 0.294 0.239 0.534 0.533 0.534zM26.667 10.667h1.066v2.133h-1.066v-2.133z"></path>
<path fill="#d4c17f" style="fill: var(--color1, #d4c17f)" d="M5.867 9.6h-2.134c-0.294 0-0.533 0.239-0.533 0.533v3.2c0 0.294 0.239 0.534 0.533 0.534h2.134c0.294 0 0.533-0.239 0.533-0.534v-3.2c0-0.294-0.239-0.533-0.533-0.533zM5.333 12.8h-1.066v-2.133h1.066v2.133zM17.067 13.333c0 0.294 0.239 0.534 0.533 0.534h2.133c0.294 0 0.534-0.239 0.534-0.534v-3.2c0-0.294-0.239-0.533-0.534-0.533h-2.133c-0.294 0-0.533 0.239-0.533 0.533v3.2zM18.133 10.667h1.067v2.133h-1.067v-2.133zM31.467 6.4h-6.4c-0.288 0.008-0.519 0.244-0.519 0.533s0.231 0.525 0.518 0.533l0.001 0h5.866v21.431c-0.158-0.060-0.341-0.096-0.532-0.098h-0.001c-0.092 0-0.184 0.008-0.274 0.024-0.369-0.655-1.060-1.091-1.852-1.091-0.002 0-0.005 0-0.007 0h0c-0.002 0-0.005 0-0.007 0-0.793 0-1.484 0.435-1.847 1.080l-0.006 0.011c-0.082-0.015-0.176-0.023-0.272-0.023-0.884 0-1.6 0.716-1.602 1.599v0c0 0.882 0.718 1.6 1.6 1.6h4.266c0.882 0 1.6-0.718 1.6-1.6v-23.467c0-0.294-0.239-0.533-0.533-0.533zM30.4 30.933h-4.267c-0.294-0-0.533-0.239-0.533-0.533v-0c0-0.294 0.24-0.533 0.533-0.533 0.102 0 0.2 0.029 0.289 0.087 0.146 0.094 0.328 0.111 0.49 0.046s0.28-0.205 0.319-0.374c0.111-0.476 0.531-0.826 1.034-0.826 0.001 0 0.002 0 0.002 0h-0c0.001 0 0.001 0 0.002 0 0.502 0 0.923 0.349 1.032 0.818l0.001 0.007c0.038 0.169 0.158 0.309 0.318 0.374s0.344 0.048 0.49-0.046c0.347-0.224 0.822 0.050 0.822 0.446 0 0.294-0.239 0.533-0.533 0.533zM17.6 7.467h2.133c0.294 0 0.534-0.239 0.534-0.534v-3.2c0-0.294-0.239-0.533-0.534-0.533h-2.133c-0.294 0-0.533 0.239-0.533 0.533v3.2c0 0.294 0.239 0.534 0.533 0.534zM18.133 4.267h1.067v2.133h-1.067v-2.133zM17.067 19.733c0 0.294 0.239 0.534 0.533 0.534h2.133c0.294 0 0.534-0.239 0.534-0.534v-3.2c0-0.294-0.239-0.533-0.534-0.533h-2.133c-0.294 0-0.533 0.239-0.533 0.533v3.2zM18.133 17.067h1.067v2.133h-1.067v-2.133zM12.267 7.467h2.133c0.294 0 0.533-0.239 0.533-0.534v-3.2c0-0.294-0.239-0.533-0.533-0.533h-2.133c-0.294 0-0.534 0.239-0.534 0.533v3.2c0 0.294 0.239 0.534 0.534 0.534zM12.8 4.267h1.067v2.133h-1.067v-2.133zM15.621 25.755c-0.096 0.101-0.154 0.24-0.154 0.378s0.058 0.278 0.154 0.379c0.102 0.096 0.24 0.155 0.379 0.155s0.277-0.059 0.379-0.155c0.096-0.101 0.154-0.24 0.154-0.379s-0.058-0.277-0.154-0.378c-0.203-0.198-0.555-0.198-0.758 0zM11.733 19.733c0 0.294 0.239 0.534 0.534 0.534h2.133c0.294 0 0.533-0.239 0.533-0.534v-3.2c0-0.294-0.239-0.533-0.533-0.533h-2.133c-0.294 0-0.534 0.239-0.534 0.533v3.2zM12.8 17.067h1.067v2.133h-1.067v-2.133z"></path>
<path fill="#d4c17f" style="fill: var(--color1, #d4c17f)" d="M10.667 22.933c0 0.294 0.239 0.534 0.533 0.534h1.6v4.8c0.008 0.288 0.244 0.519 0.533 0.519s0.525-0.231 0.533-0.518l0-0.001v-4.8h4.266v4.8c0.008 0.288 0.244 0.519 0.533 0.519s0.525-0.231 0.533-0.518l0-0.001v-4.8h1.6c0.288-0.008 0.519-0.244 0.519-0.533s-0.231-0.525-0.518-0.533l-0.001-0h-9.6c-0.294 0-0.533 0.239-0.533 0.533zM25.6 19.733c0 0.294 0.239 0.534 0.533 0.534h2.134c0.294 0 0.533-0.239 0.533-0.534v-3.2c0-0.294-0.239-0.533-0.533-0.533h-2.134c-0.294 0-0.533 0.239-0.533 0.533v3.2zM26.667 17.067h1.066v2.133h-1.066v-2.133z"></path>
<path fill="#d4c17f" style="fill: var(--color1, #d4c17f)" d="M22.933 0h-13.866c-0.294 0-0.534 0.239-0.534 0.533v27.734c0.008 0.288 0.244 0.519 0.533 0.519s0.525-0.231 0.533-0.518l0-0.001v-27.2h12.8v27.2c0.008 0.288 0.244 0.519 0.533 0.519s0.525-0.231 0.533-0.518l0-0.001v-27.734c0-0.294-0.239-0.533-0.534-0.533z"></path>
</symbol>
<symbol id="icon-facebook" viewBox="0 0 32 32">
<path d="M19 6h5v-6h-5c-3.86 0-7 3.14-7 7v3h-4v6h4v16h6v-16h5l1-6h-6v-3c0-0.542 0.458-1 1-1z"></path>
</symbol>
<symbol id="icon-fountain" viewBox="0 0 32 32">
<path fill="#d4c17f" style="fill: var(--color1, #d4c17f)" d="M21.356 1.849c0.073 0 0.146-0.015 0.217-0.047 0.153-0.068 0.307-0.133 0.464-0.192 0.203-0.078 0.344-0.272 0.344-0.498 0-0.068-0.013-0.133-0.036-0.193l0.001 0.004c-0.079-0.203-0.273-0.344-0.5-0.344-0.068 0-0.132 0.013-0.192 0.035l0.004-0.001c-0.176 0.067-0.351 0.14-0.522 0.216-0.188 0.085-0.317 0.271-0.317 0.487 0 0.294 0.239 0.533 0.533 0.533 0.001 0 0.002 0 0.003 0h-0zM21.333 13.415c0.295 0 0.534-0.238 0.534-0.533v-0.092c0-0.14 0.009-0.278 0.026-0.413 0.038-0.292-0.167-0.56-0.458-0.598-0.022-0.003-0.048-0.005-0.074-0.005-0.27 0-0.492 0.201-0.525 0.462l-0 0.003c-0.023 0.18-0.036 0.366-0.036 0.552v0.092c0 0.295 0.239 0.534 0.534 0.534zM18.667 13.547c0.295 0 0.533-0.239 0.533-0.533v-0.542c0-0.295-0.239-0.533-0.533-0.533s-0.533 0.239-0.533 0.533v0.542c0 0.294 0.238 0.533 0.534 0.533zM21.729 5.111c-0.172 0.094-0.34 0.196-0.502 0.304-0.144 0.097-0.237 0.259-0.237 0.443 0 0.294 0.239 0.533 0.533 0.533 0.11 0 0.213-0.034 0.298-0.091l-0.002 0.001c0.138-0.091 0.279-0.177 0.424-0.257 0.258-0.142 0.352-0.467 0.21-0.724-0.093-0.166-0.267-0.276-0.467-0.276-0.094 0-0.183 0.024-0.26 0.068l0.003-0.001zM14.164 5.057c0.096 0.151 0.262 0.25 0.451 0.25 0.105 0 0.203-0.031 0.286-0.083l-0.002 0.001c0.151-0.096 0.25-0.262 0.25-0.452 0-0.105-0.030-0.203-0.083-0.285l0.001 0.002c-0.122-0.195-0.226-0.349-0.334-0.499l0.019 0.028c-0.098-0.136-0.256-0.223-0.434-0.223-0.295 0-0.534 0.239-0.534 0.534 0 0.116 0.037 0.224 0.101 0.312l-0.001-0.002c0.098 0.136 0.191 0.275 0.28 0.417zM23.915 1.129c0.022 0 0.045-0.002 0.067-0.004 0.165-0.021 0.332-0.037 0.5-0.049 0.279-0.019 0.499-0.25 0.499-0.532 0-0.012-0-0.025-0.001-0.037l0 0.002c-0.020-0.279-0.252-0.497-0.534-0.497-0.012 0-0.024 0-0.035 0.001l0.002-0c-0.19 0.012-0.378 0.031-0.563 0.054-0.265 0.034-0.468 0.258-0.468 0.529 0 0.294 0.239 0.533 0.533 0.533 0 0 0.001 0 0.001 0h-0zM21.938 9.889c-0.078 0.092-0.126 0.213-0.126 0.344 0 0.295 0.239 0.534 0.534 0.534 0.146 0 0.278-0.058 0.374-0.153l-0 0c0.111-0.12 0.233-0.232 0.363-0.336 0.123-0.098 0.202-0.249 0.202-0.418 0-0.126-0.044-0.242-0.117-0.333l0.001 0.001c-0.098-0.124-0.249-0.202-0.418-0.202-0.126 0-0.242 0.044-0.333 0.117l0.001-0.001c-0.172 0.136-0.334 0.287-0.482 0.446zM17.101 5.225c0.080 0.051 0.178 0.082 0.284 0.082 0.189 0 0.355-0.099 0.45-0.248l0.001-0.002c0.089-0.142 0.182-0.281 0.28-0.417 0.062-0.086 0.1-0.194 0.1-0.31 0-0.295-0.239-0.534-0.534-0.534-0.178 0-0.336 0.087-0.433 0.222l-0.001 0.002c-0.090 0.123-0.194 0.277-0.293 0.434l-0.022 0.037c-0.051 0.080-0.081 0.178-0.081 0.283 0 0.189 0.099 0.356 0.247 0.45l0.002 0.001zM21.333 15.99c0.295 0 0.534-0.239 0.534-0.533v-0.267c0-0.295-0.239-0.533-0.533-0.533s-0.533 0.239-0.533 0.533v0.267c0 0.294 0.238 0.533 0.533 0.533zM18.656 10.836c0.021 0.003 0.046 0.005 0.072 0.005 0.269 0 0.492-0.199 0.529-0.458l0-0.003c0.022-0.164 0.051-0.326 0.087-0.486 0.008-0.035 0.013-0.076 0.013-0.118 0-0.295-0.239-0.533-0.533-0.533-0.253 0-0.464 0.176-0.52 0.412l-0.001 0.004c-0.036 0.147-0.072 0.343-0.101 0.542l-0.004 0.037c-0.003 0.021-0.005 0.046-0.005 0.071 0 0.269 0.2 0.492 0.459 0.528l0.003 0zM15.024 6.872c0.054 0.158 0.102 0.317 0.146 0.479 0.064 0.228 0.27 0.393 0.515 0.393 0.050 0 0.098-0.007 0.143-0.019l-0.004 0.001c0.066-0.018 0.124-0.050 0.176-0.088 0.087 0.066 0.197 0.106 0.316 0.107h0c0.234 0 0.449-0.156 0.514-0.394 0.044-0.162 0.092-0.322 0.145-0.48 0.018-0.051 0.029-0.11 0.029-0.172 0-0.233-0.149-0.431-0.358-0.504l-0.004-0.001c-0.256-0.087-0.526 0.038-0.642 0.275-0.117-0.237-0.387-0.362-0.643-0.275-0.212 0.074-0.361 0.272-0.361 0.505 0 0.062 0.011 0.121 0.030 0.176l-0.001-0.004zM19.114 3.283c0.124 0 0.249-0.043 0.35-0.13 0.126-0.11 0.256-0.217 0.388-0.318 0.127-0.098 0.208-0.251 0.208-0.423 0-0.295-0.239-0.533-0.533-0.533-0.123 0-0.236 0.042-0.326 0.111l0.001-0.001c-0.15 0.115-0.296 0.235-0.438 0.359-0.112 0.098-0.183 0.242-0.183 0.402 0 0.294 0.238 0.533 0.532 0.533h0zM19.528 7.017c-0.117 0.156-0.228 0.317-0.332 0.482-0.051 0.080-0.082 0.178-0.082 0.284 0 0.294 0.238 0.533 0.532 0.534h0c0.177 0 0.35-0.088 0.452-0.249 0.088-0.14 0.182-0.277 0.282-0.409 0.058-0.084 0.093-0.188 0.093-0.301 0-0.295-0.239-0.534-0.534-0.534-0.165 0-0.312 0.075-0.41 0.192l-0.001 0.001zM24.521 4.278c-0.226 0.017-0.426 0.042-0.623 0.076l0.039-0.006c-0.246 0.051-0.428 0.266-0.428 0.523 0 0.295 0.239 0.534 0.534 0.534 0.024 0 0.047-0.002 0.070-0.005l-0.003 0c0.132-0.023 0.301-0.044 0.472-0.058l0.020-0.001c0.276-0.022 0.492-0.252 0.492-0.532 0-0.014-0.001-0.029-0.002-0.043l0 0.002c-0.019-0.276-0.248-0.492-0.527-0.492-0.016 0-0.032 0.001-0.048 0.002l0.002-0zM26.494 1.168c0.166 0.027 0.331 0.058 0.494 0.094 0.037 0.009 0.079 0.014 0.122 0.014 0.294 0 0.533-0.239 0.533-0.533 0-0.257-0.182-0.472-0.424-0.522l-0.003-0.001c-0.183-0.040-0.368-0.075-0.555-0.105-0.026-0.004-0.055-0.007-0.085-0.007-0.265 0-0.484 0.193-0.525 0.447l-0 0.003c-0.004 0.025-0.007 0.055-0.007 0.084 0 0.265 0.193 0.484 0.447 0.525l0.003 0zM27.407 4.661c-0.184-0.066-0.371-0.124-0.56-0.174-0.040-0.011-0.087-0.017-0.135-0.017-0.246 0-0.454 0.166-0.517 0.392l-0.001 0.004c-0.011 0.041-0.018 0.088-0.018 0.137 0 0.246 0.166 0.453 0.393 0.515l0.004 0.001c0.16 0.042 0.318 0.091 0.473 0.147 0.054 0.020 0.116 0.031 0.18 0.031 0.295 0 0.533-0.239 0.533-0.533 0-0.23-0.145-0.426-0.349-0.501l-0.004-0.001zM24.85 8.528c-0.283 0.015-0.507 0.247-0.507 0.533 0 0.009 0 0.019 0.001 0.028l-0-0.001c0.014 0.294 0.245 0.518 0.559 0.506 0.047-0.002 0.103-0.004 0.159-0.004 0.118 0 0.235 0.006 0.35 0.018l-0.014-0.001c0.021 0.003 0.045 0.005 0.069 0.005 0.295 0 0.534-0.239 0.534-0.534 0-0.281-0.217-0.511-0.492-0.532l-0.002-0c-0.132-0.014-0.285-0.023-0.441-0.023-0.076 0-0.152 0.002-0.227 0.006l0.011-0zM31.072 3.549c0.098 0.107 0.238 0.174 0.394 0.174 0.139 0 0.265-0.053 0.36-0.14l-0 0c0.218-0.198 0.233-0.536 0.035-0.754-0.064-0.070-0.129-0.139-0.195-0.206-0.097-0.099-0.232-0.16-0.381-0.16-0.295 0-0.534 0.239-0.534 0.534 0 0.145 0.058 0.277 0.152 0.373l-0-0c0.058 0.058 0.114 0.118 0.169 0.178zM22.933 20.256h-6.4c-0.295 0-0.533 0.239-0.533 0.533s0.239 0.533 0.533 0.533h6.4c1.496 0 2.667-1.171 2.667-2.667v-1.066c0-0.294-0.238-0.534-0.533-0.534h-18.134c-0.295 0-0.533 0.239-0.533 0.534v1.066c0 1.496 1.171 2.667 2.667 2.667h4.8v2.667c0 0.294 0.239 0.533 0.533 0.533s0.533-0.239 0.533-0.533v-3.2c0-0.294-0.238-0.534-0.533-0.534h-5.333c-0.898 0-1.6-0.703-1.6-1.6v-0.533h17.066v0.533c0 0.897-0.702 1.6-1.6 1.6zM28.259 12.561c0.005 0.075 0.008 0.152 0.008 0.229 0 0.294 0.239 0.533 0.533 0.533s0.533-0.239 0.533-0.533v0c0-0.102-0.004-0.204-0.011-0.305-0.019-0.278-0.249-0.496-0.529-0.496-0.014 0-0.028 0.001-0.042 0.002l0.002-0c-0.278 0.021-0.495 0.251-0.495 0.532 0 0.013 0 0.027 0.001 0.040l-0-0.002zM27.132 9.633c-0.083 0.094-0.133 0.217-0.133 0.353 0 0.159 0.070 0.302 0.18 0.4l0.001 0.001c0.124 0.109 0.239 0.228 0.344 0.354 0.099 0.118 0.245 0.192 0.41 0.192 0.295 0 0.533-0.239 0.533-0.533 0-0.13-0.047-0.25-0.124-0.342l0.001 0.001c-0.143-0.171-0.293-0.325-0.454-0.467l-0.005-0.004c-0.093-0.083-0.217-0.133-0.353-0.133-0.159 0-0.302 0.070-0.399 0.18l-0 0.001zM16.533 12.226c0-0.294-0.239-0.533-0.533-0.533s-0.533 0.239-0.533 0.533v0.593c0 0.294 0.239 0.533 0.533 0.533s0.533-0.239 0.533-0.533v-0.593zM16 14.656c-0.295 0-0.533 0.239-0.533 0.534v0.266c0 0.294 0.239 0.533 0.533 0.533s0.533-0.239 0.533-0.533v-0.266c0-0.294-0.238-0.534-0.533-0.534zM18.133 15.456c0 0.295 0.239 0.533 0.533 0.533s0.533-0.239 0.533-0.533v-0.266c0-0.295-0.239-0.533-0.533-0.533s-0.533 0.239-0.533 0.533v0.266zM16.533 9.59c0-0.084 0.001-0.168 0.004-0.251 0-0.004 0-0.009 0-0.013 0-0.222-0.136-0.411-0.329-0.491l-0.004-0.001c-0.020-0.009-0.044-0.009-0.065-0.015-0.040-0.011-0.078-0.027-0.121-0.028l-0.016-0-0.003 0-0.003-0-0.016 0c-0.043 0.001-0.082 0.017-0.121 0.028-0.021 0.006-0.045 0.006-0.064 0.015-0.196 0.081-0.332 0.27-0.332 0.492 0 0.005 0 0.009 0 0.014v-0.001c0.002 0.084 0.004 0.167 0.004 0.251v0.267c0 0.294 0.239 0.533 0.533 0.533s0.533-0.239 0.533-0.533v-0.267zM12.8 15.456c0 0.295 0.239 0.533 0.533 0.533s0.533-0.239 0.533-0.533v-0.266c0-0.295-0.239-0.533-0.533-0.533s-0.533 0.239-0.533 0.533v0.266zM13.333 13.547c0.295 0 0.534-0.239 0.534-0.533v-0.542c0-0.295-0.239-0.533-0.533-0.533s-0.533 0.239-0.533 0.533v0.542c0 0.294 0.238 0.533 0.533 0.533zM11.2 15.456v-0.266c0-0.294-0.239-0.533-0.533-0.533s-0.533 0.239-0.533 0.533v0 0.266c0 0.294 0.239 0.533 0.533 0.533s0.533-0.239 0.533-0.533v0zM3.725 10.809c0.092 0.077 0.211 0.124 0.341 0.124 0.165 0 0.312-0.075 0.409-0.192l0.001-0.001c0.104-0.126 0.22-0.245 0.344-0.354 0.221-0.195 0.242-0.532 0.047-0.753-0.098-0.111-0.241-0.181-0.4-0.181-0.135 0-0.259 0.051-0.353 0.134l0.001-0c-0.165 0.145-0.32 0.304-0.459 0.472-0.077 0.092-0.123 0.211-0.123 0.341 0 0.164 0.074 0.311 0.191 0.409l0.001 0.001z"></path>
<path fill="#d4c17f" style="fill: var(--color1, #d4c17f)" d="M29.333 25.59h-11.2v-2.667c0-0.294-0.239-0.533-0.533-0.533s-0.533 0.239-0.533 0.533v3.2c0 0.294 0.238 0.533 0.533 0.533h11.2v2.667c0 0.882-0.718 1.6-1.6 1.6h-22.4c-0.882 0-1.6-0.718-1.6-1.6v-2.667h12.311c0.294 0 0.533-0.239 0.533-0.533s-0.239-0.533-0.533-0.533h-12.844c-0.295 0-0.534 0.239-0.534 0.533v3.2c0.002 1.472 1.195 2.665 2.667 2.667h22.4c1.472-0.002 2.665-1.195 2.667-2.667v-3.2c0-0.294-0.238-0.533-0.534-0.533z"></path>
<path fill="#d4c17f" style="fill: var(--color1, #d4c17f)" d="M12.8 28.256v1.067c0 0.295 0.239 0.533 0.533 0.533s0.533-0.239 0.533-0.533v-1.067c0-0.295-0.239-0.533-0.533-0.533s-0.533 0.239-0.533 0.533v0zM0.557 10.39l-0.019-0c-0.285 0-0.522 0.226-0.532 0.514-0.004 0.095-0.006 0.19-0.006 0.286 0 0.295 0.239 0.533 0.533 0.533s0.533-0.239 0.533-0.533v0c0-0.083 0.002-0.166 0.005-0.248 0-0.006 0-0.012 0-0.019 0-0.288-0.228-0.522-0.514-0.532l-0.001-0zM2.861 6.966c0.12-0.115 0.244-0.225 0.372-0.33 0.12-0.099 0.196-0.247 0.196-0.413 0-0.295-0.239-0.533-0.533-0.533-0.128 0-0.246 0.045-0.338 0.121l0.001-0.001c-0.151 0.124-0.298 0.254-0.437 0.389-0.109 0.098-0.178 0.24-0.178 0.397 0 0.294 0.239 0.533 0.533 0.533 0.151 0 0.287-0.063 0.384-0.164l0-0zM1.451 7.841c-0.070-0.036-0.152-0.056-0.239-0.056-0.208 0-0.387 0.118-0.476 0.291l-0.001 0.003c-0.087 0.174-0.168 0.352-0.241 0.534-0.020 0.054-0.032 0.117-0.032 0.182 0 0.295 0.239 0.534 0.534 0.534 0.217 0 0.404-0.13 0.487-0.316l0.001-0.003c0.061-0.154 0.13-0.305 0.204-0.453 0.036-0.070 0.057-0.152 0.057-0.239 0-0.207-0.118-0.387-0.291-0.475l-0.003-0.001zM2.412 2.225c0.090 0 0.182-0.023 0.265-0.071 0.145-0.083 0.291-0.162 0.441-0.235 0.264-0.13 0.373-0.45 0.243-0.714-0.089-0.178-0.27-0.298-0.479-0.298-0.086 0-0.167 0.020-0.238 0.056l0.003-0.001c-0.171 0.084-0.338 0.173-0.502 0.267-0.161 0.094-0.267 0.266-0.267 0.462 0 0.295 0.239 0.534 0.534 0.534 0 0 0 0 0 0v0zM7.467 28.256v1.067c0 0.294 0.239 0.533 0.533 0.533s0.533-0.239 0.533-0.533v0-1.067c0-0.294-0.239-0.533-0.533-0.533s-0.533 0.239-0.533 0.533v0zM31.208 9.307c0.198-0.081 0.335-0.272 0.335-0.495 0-0.071-0.014-0.139-0.039-0.201l0.001 0.004c-0.090-0.225-0.171-0.401-0.259-0.573l0.018 0.038c-0.090-0.176-0.269-0.294-0.477-0.294-0.294 0-0.533 0.239-0.533 0.533 0 0.087 0.021 0.169 0.058 0.242l-0.001-0.003c0.074 0.148 0.143 0.298 0.204 0.453 0.081 0.198 0.272 0.335 0.495 0.335 0.071 0 0.14-0.014 0.202-0.040l-0.004 0.001zM31.994 10.904c-0.010-0.295-0.271-0.531-0.551-0.514-0.286 0.010-0.515 0.245-0.515 0.533 0 0.007 0 0.013 0 0.020l-0-0.001c0.003 0.082 0.005 0.165 0.005 0.248 0 0.295 0.239 0.533 0.533 0.533s0.533-0.239 0.533-0.533v0c0-0.096-0.002-0.19-0.006-0.286zM29.854 1.23c-0.164-0.094-0.331-0.184-0.502-0.267-0.069-0.034-0.149-0.054-0.235-0.054-0.209 0-0.39 0.12-0.478 0.294l-0.001 0.003c-0.13 0.264-0.021 0.584 0.243 0.714 0.15 0.073 0.296 0.152 0.44 0.235 0.071 0.038 0.156 0.060 0.245 0.060 0.295 0 0.534-0.239 0.534-0.534 0-0.188-0.098-0.354-0.245-0.449l-0.002-0.001zM24.533 29.323v-1.067c0-0.294-0.239-0.533-0.533-0.533s-0.533 0.239-0.533 0.533v1.067c0 0.294 0.239 0.533 0.533 0.533s0.533-0.239 0.533-0.533v0zM19.2 29.323v-1.067c0-0.294-0.239-0.533-0.533-0.533s-0.533 0.239-0.533 0.533v1.067c0 0.294 0.239 0.533 0.533 0.533s0.533-0.239 0.533-0.533v0zM29.442 5.81c-0.091-0.075-0.209-0.12-0.338-0.12-0.295 0-0.533 0.239-0.533 0.533 0 0.166 0.076 0.314 0.195 0.412l0.001 0.001c0.128 0.105 0.253 0.215 0.372 0.33 0.096 0.092 0.226 0.149 0.37 0.149 0.294 0 0.533-0.239 0.533-0.533 0-0.15-0.062-0.286-0.163-0.383l-0-0c-0.139-0.136-0.286-0.265-0.437-0.389zM3.248 11.991c-0.013-0.001-0.028-0.002-0.043-0.002-0.28 0-0.51 0.218-0.527 0.494l-0 0.002c-0.007 0.101-0.010 0.202-0.010 0.305 0 0.294 0.239 0.533 0.533 0.533s0.533-0.239 0.533-0.533v0c0-0.077 0.003-0.154 0.008-0.229 0.001-0.011 0.001-0.024 0.001-0.038 0-0.281-0.217-0.511-0.493-0.532l-0.002-0zM10.565 11.778c-0.263 0.036-0.463 0.259-0.463 0.529 0 0.024 0.002 0.048 0.005 0.072l-0-0.003c0.018 0.136 0.026 0.273 0.026 0.414v0.092c0 0.295 0.238 0.534 0.534 0.534s0.533-0.238 0.533-0.534v-0.092c0-0.186-0.012-0.372-0.036-0.553-0.034-0.263-0.257-0.464-0.527-0.464-0.025 0-0.051 0.002-0.075 0.005l0.003-0zM9.963 1.61c0.157 0.059 0.311 0.124 0.464 0.192 0.064 0.029 0.139 0.047 0.218 0.047 0.294 0 0.533-0.239 0.533-0.533 0-0.216-0.128-0.401-0.312-0.485l-0.003-0.001c-0.109-0.053-0.281-0.126-0.455-0.194l-0.067-0.023c-0.056-0.021-0.12-0.034-0.187-0.034-0.227 0-0.421 0.141-0.499 0.34l-0.001 0.004c-0.022 0.056-0.035 0.122-0.035 0.19 0 0.226 0.141 0.42 0.341 0.497l0.004 0.001zM9.756 6.045c0.145 0.080 0.287 0.166 0.424 0.257 0.085 0.060 0.191 0.097 0.306 0.097 0.294 0 0.533-0.239 0.533-0.533 0-0.188-0.098-0.354-0.245-0.449l-0.002-0.001c-0.162-0.108-0.33-0.21-0.502-0.304-0.074-0.042-0.163-0.066-0.257-0.066-0.2 0-0.375 0.11-0.466 0.273l-0.001 0.003c-0.041 0.074-0.066 0.162-0.066 0.256 0 0.2 0.11 0.375 0.273 0.466l0.003 0.001zM0.533 3.723c0.145 0 0.289-0.059 0.394-0.174 0.055-0.060 0.112-0.12 0.169-0.178 0.089-0.095 0.144-0.224 0.144-0.365 0-0.295-0.239-0.534-0.534-0.534-0.145 0-0.277 0.058-0.373 0.152l0-0c-0.063 0.064-0.127 0.131-0.189 0.199l-0.006 0.006c-0.086 0.094-0.139 0.221-0.139 0.359 0 0.294 0.239 0.533 0.533 0.534h0zM8.917 10.278c0.13 0.104 0.252 0.216 0.363 0.336 0.098 0.112 0.242 0.182 0.401 0.182 0.295 0 0.534-0.239 0.534-0.534 0-0.145-0.058-0.277-0.152-0.373l0 0c-0.148-0.159-0.31-0.31-0.482-0.446-0.090-0.072-0.206-0.116-0.332-0.116-0.295 0-0.533 0.239-0.533 0.533 0 0.169 0.078 0.319 0.2 0.417l0.001 0.001zM11.901 8.067c0.096 0.151 0.262 0.25 0.451 0.25 0.106 0 0.204-0.031 0.287-0.084l-0.002 0.001c0.249-0.157 0.324-0.487 0.167-0.736-0.121-0.191-0.231-0.348-0.346-0.501l0.013 0.019c-0.099-0.13-0.253-0.212-0.426-0.212-0.121 0-0.233 0.040-0.322 0.108l0.001-0.001c-0.13 0.098-0.212 0.253-0.212 0.426 0 0.121 0.040 0.233 0.108 0.322l-0.001-0.001c0.1 0.132 0.194 0.268 0.282 0.408zM12.148 2.834c0.132 0.102 0.262 0.208 0.388 0.318 0.101 0.088 0.226 0.13 0.35 0.13 0 0 0 0 0 0 0.294 0 0.533-0.239 0.533-0.533 0-0.16-0.071-0.304-0.183-0.402l-0.001-0.001c-0.142-0.124-0.288-0.244-0.438-0.359-0.085-0.061-0.192-0.097-0.307-0.097-0.295 0-0.534 0.239-0.534 0.534 0 0.164 0.074 0.31 0.19 0.408l0.001 0.001zM4.896 1.274c0.038 0 0.076-0.004 0.114-0.012 0.164-0.036 0.329-0.068 0.495-0.094 0.256-0.042 0.449-0.261 0.449-0.526 0-0.030-0.002-0.059-0.007-0.087l0 0.003c-0.041-0.256-0.26-0.45-0.525-0.45-0.030 0-0.060 0.003-0.089 0.007l0.003-0c-0.187 0.030-0.372 0.065-0.555 0.105-0.241 0.054-0.419 0.267-0.419 0.521 0 0.294 0.238 0.533 0.532 0.533h0zM7.517 1.076c0.169 0.012 0.336 0.028 0.5 0.048 0.022 0.003 0.046 0.005 0.072 0.005 0.294 0 0.533-0.239 0.533-0.533 0-0.273-0.205-0.498-0.469-0.529l-0.003-0c-0.145-0.020-0.338-0.040-0.534-0.053l-0.029-0.002c-0.010-0.001-0.022-0.001-0.033-0.001-0.282 0-0.514 0.218-0.534 0.496l-0 0.002c-0.001 0.011-0.001 0.023-0.001 0.035 0 0.282 0.219 0.513 0.496 0.532l0.002 0zM13.058 9.256c-0.24 0.056-0.416 0.267-0.416 0.52 0 0.042 0.005 0.082 0.014 0.121l-0.001-0.004c0.037 0.16 0.066 0.322 0.088 0.486 0.037 0.262 0.26 0.461 0.529 0.461 0.025 0 0.050-0.002 0.074-0.005l-0.003 0c0.262-0.037 0.462-0.259 0.462-0.529 0-0.025-0.002-0.050-0.005-0.074l0 0.003c-0.027-0.195-0.062-0.388-0.105-0.579-0.056-0.239-0.268-0.415-0.521-0.415-0.042 0-0.082 0.005-0.121 0.014l0.004-0.001zM4.773 5.697c0.060 0 0.121-0.010 0.18-0.032 0.155-0.056 0.312-0.105 0.473-0.147 0.23-0.063 0.397-0.27 0.397-0.516 0-0.048-0.006-0.095-0.018-0.14l0.001 0.004c-0.063-0.23-0.271-0.397-0.517-0.397-0.048 0-0.095 0.006-0.139 0.018l0.004-0.001c-0.189 0.050-0.376 0.109-0.56 0.174-0.208 0.076-0.355 0.272-0.355 0.502 0 0.294 0.239 0.533 0.533 0.533 0 0 0.001 0 0.002 0h-0zM7.397 5.341c0.166 0.013 0.33 0.033 0.492 0.059 0.026 0.005 0.056 0.007 0.087 0.007 0.264 0 0.483-0.192 0.525-0.444l0-0.003c0.005-0.026 0.007-0.056 0.007-0.086 0-0.264-0.191-0.483-0.443-0.526l-0.003-0c-0.157-0.028-0.357-0.053-0.56-0.069l-0.023-0.001c-0.012-0.001-0.027-0.002-0.041-0.002-0.294 0-0.533 0.239-0.533 0.533 0 0.28 0.216 0.51 0.49 0.531l0.002 0zM6.547 9.609c0.018 0 0.037-0 0.056-0.003 0.101-0.011 0.218-0.017 0.336-0.017 0.056 0 0.111 0.001 0.167 0.004l-0.008-0c0.010 0.001 0.021 0.001 0.033 0.001 0.284 0 0.515-0.225 0.526-0.506l0-0.001c0-0.008 0.001-0.017 0.001-0.027 0-0.285-0.224-0.518-0.505-0.533l-0.001-0c-0.065-0.004-0.141-0.005-0.217-0.005-0.155 0-0.308 0.008-0.459 0.024l0.019-0.002c-0.269 0.030-0.475 0.256-0.475 0.53 0 0.293 0.237 0.531 0.529 0.534h0z"></path>
</symbol>
<symbol id="icon-instagram" viewBox="0 0 32 32">
<path d="M16 2.881c4.275 0 4.781 0.019 6.462 0.094 1.563 0.069 2.406 0.331 2.969 0.55 0.744 0.288 1.281 0.638 1.837 1.194 0.563 0.563 0.906 1.094 1.2 1.838 0.219 0.563 0.481 1.412 0.55 2.969 0.075 1.688 0.094 2.194 0.094 6.463s-0.019 4.781-0.094 6.463c-0.069 1.563-0.331 2.406-0.55 2.969-0.288 0.744-0.637 1.281-1.194 1.837-0.563 0.563-1.094 0.906-1.837 1.2-0.563 0.219-1.413 0.481-2.969 0.55-1.688 0.075-2.194 0.094-6.463 0.094s-4.781-0.019-6.463-0.094c-1.563-0.069-2.406-0.331-2.969-0.55-0.744-0.288-1.281-0.637-1.838-1.194-0.563-0.563-0.906-1.094-1.2-1.837-0.219-0.563-0.481-1.413-0.55-2.969-0.075-1.688-0.094-2.194-0.094-6.463s0.019-4.781 0.094-6.463c0.069-1.563 0.331-2.406 0.55-2.969 0.288-0.744 0.638-1.281 1.194-1.838 0.563-0.563 1.094-0.906 1.838-1.2 0.563-0.219 1.412-0.481 2.969-0.55 1.681-0.075 2.188-0.094 6.463-0.094zM16 0c-4.344 0-4.887 0.019-6.594 0.094-1.7 0.075-2.869 0.35-3.881 0.744-1.056 0.412-1.95 0.956-2.837 1.85-0.894 0.888-1.438 1.781-1.85 2.831-0.394 1.019-0.669 2.181-0.744 3.881-0.075 1.713-0.094 2.256-0.094 6.6s0.019 4.887 0.094 6.594c0.075 1.7 0.35 2.869 0.744 3.881 0.413 1.056 0.956 1.95 1.85 2.837 0.887 0.887 1.781 1.438 2.831 1.844 1.019 0.394 2.181 0.669 3.881 0.744 1.706 0.075 2.25 0.094 6.594 0.094s4.888-0.019 6.594-0.094c1.7-0.075 2.869-0.35 3.881-0.744 1.050-0.406 1.944-0.956 2.831-1.844s1.438-1.781 1.844-2.831c0.394-1.019 0.669-2.181 0.744-3.881 0.075-1.706 0.094-2.25 0.094-6.594s-0.019-4.887-0.094-6.594c-0.075-1.7-0.35-2.869-0.744-3.881-0.394-1.063-0.938-1.956-1.831-2.844-0.887-0.887-1.781-1.438-2.831-1.844-1.019-0.394-2.181-0.669-3.881-0.744-1.712-0.081-2.256-0.1-6.6-0.1v0z"></path>
<path d="M16 7.781c-4.537 0-8.219 3.681-8.219 8.219s3.681 8.219 8.219 8.219 8.219-3.681 8.219-8.219c0-4.537-3.681-8.219-8.219-8.219zM16 21.331c-2.944 0-5.331-2.387-5.331-5.331s2.387-5.331 5.331-5.331c2.944 0 5.331 2.387 5.331 5.331s-2.387 5.331-5.331 5.331z"></path>
<path d="M26.462 7.456c0 1.060-0.859 1.919-1.919 1.919s-1.919-0.859-1.919-1.919c0-1.060 0.859-1.919 1.919-1.919s1.919 0.859 1.919 1.919z"></path>
</symbol>
<symbol id="icon-mouse" viewBox="0 0 32 32">
<path fill="#d4c17f" style="fill: var(--color1, #d4c17f)" d="M15.975 0.839c-5.191 0-9.413 3.971-9.413 8.852v12.389c0 4.881 4.222 8.852 9.413 8.852s9.413-3.971 9.413-8.852v-12.389c0-4.881-4.222-8.852-9.413-8.852zM23.468 22.080c0 3.886-3.362 7.046-7.493 7.046s-7.493-3.161-7.493-7.046v-12.389c0-3.886 3.362-7.046 7.493-7.046s7.493 3.161 7.493 7.046v12.389z"></path>
<path fill="#d4c17f" style="fill: var(--color1, #d4c17f)" d="M15.976 6.826c-0.531 0-0.96 0.404-0.96 0.903v4.155c0 0.498 0.429 0.902 0.96 0.902 0.53 0 0.96-0.404 0.96-0.902v-4.156c0-0.499-0.43-0.903-0.96-0.903z"></path>
</symbol>
<symbol id="icon-phone-call" viewBox="0 0 32 32">
<path d="M31.979 25.912c-0.114-0.748-0.572-1.368-1.205-1.704l-0.013-0.006-7.893-4.274c-0.356-0.195-0.78-0.31-1.231-0.31-0.676 0-1.292 0.259-1.754 0.682l0.002-0.002-1.554 1.463c-0.212 0.196-0.497 0.317-0.81 0.317-0.269 0-0.518-0.089-0.717-0.24l0.003 0.002c-2.537-1.935-4.769-4.038-6.765-6.351l-0.048-0.057c-0.156-0.179-0.251-0.415-0.251-0.673 0-0.301 0.13-0.571 0.336-0.759l0.001-0.001 1.554-1.463c0.445-0.408 0.722-0.992 0.722-1.641 0-0.43-0.122-0.832-0.333-1.172l0.005 0.009-4.546-7.424c-0.395-0.626-1.049-1.058-1.808-1.145l-0.011-0.001c-0.768-0.096-1.524 0.146-2.072 0.661l-2.344 2.203c-1.635 1.539-1.661 4.352-0.073 7.921 1.527 3.433 4.375 7.212 8.021 10.642 3.646 3.429 7.665 6.107 11.316 7.543 1.868 0.736 3.541 1.103 4.955 1.103 1.457 0 2.636-0.392 3.467-1.173l2.344-2.202c0.549-0.517 0.805-1.227 0.702-1.95zM22.35 20.773l7.893 4.274c0.376 0.198 0.642 0.559 0.708 0.986l0.001 0.007c0.008 0.054 0.013 0.116 0.013 0.18 0 0.304-0.106 0.583-0.283 0.803l0.002-0.002-10.491-5.632 0.427-0.401c0.267-0.245 0.625-0.394 1.017-0.394 0.261 0 0.507 0.067 0.722 0.184l-0.008-0.004zM5.527 2.13c0.447 0.052 0.827 0.302 1.053 0.66l0.003 0.006 4.546 7.424c0.12 0.193 0.191 0.426 0.191 0.677 0 0.377-0.161 0.716-0.419 0.953l-0.001 0.001-0.392 0.366-6.019-9.833c0.236-0.166 0.529-0.266 0.845-0.266 0.068 0 0.135 0.005 0.2 0.013l-0.008-0.001zM28.201 29.376c-1.3 1.222-3.957 1.17-7.291-0.14-3.529-1.387-7.429-3.992-10.982-7.334-3.554-3.34-6.324-7.010-7.797-10.327-1.394-3.136-1.449-5.635-0.151-6.857l1.74-1.635 6.030 9.848-0.404 0.381c-0.394 0.359-0.641 0.875-0.641 1.448 0 0.493 0.182 0.943 0.483 1.287l-0.002-0.002c2.092 2.424 4.375 4.577 6.862 6.477l0.109 0.080c0.869 0.655 2.117 0.591 2.906-0.151l0.369-0.347 10.505 5.638-1.737 1.635z"></path>
</symbol>
<symbol id="icon-placeholder" viewBox="0 0 32 32">
<path d="M16.104 7.739c-2.255 0-4.090 1.726-4.090 3.848 0 2.12 1.835 3.846 4.090 3.846s4.091-1.726 4.091-3.846c0-2.121-1.836-3.848-4.091-3.848zM16.104 14.334c-1.611 0-2.921-1.233-2.921-2.747 0-1.516 1.31-2.749 2.921-2.749 1.612 0 2.923 1.234 2.923 2.749s-1.31 2.747-2.923 2.747z"></path>
<path d="M23.925 4.232c-2.117-1.992-4.931-3.089-7.924-3.089-2.994 0-5.809 1.097-7.924 3.087-3.918 3.683-4.404 10.613-1.056 14.811l8.98 12.197 8.965-12.177c3.363-4.216 2.877-11.147-1.041-14.83zM24.018 18.418l-8.017 10.889-8.030-10.906c-3.038-3.81-2.603-10.068 0.933-13.394 1.896-1.781 4.416-2.763 7.098-2.763s5.201 0.983 7.098 2.766c3.535 3.325 3.971 9.583 0.919 13.41z"></path>
</symbol>
<symbol id="icon-twitter" viewBox="0 0 32 32">
<path d="M32 7.075c-1.175 0.525-2.444 0.875-3.769 1.031 1.356-0.813 2.394-2.1 2.887-3.631-1.269 0.75-2.675 1.3-4.169 1.594-1.2-1.275-2.906-2.069-4.794-2.069-3.625 0-6.563 2.938-6.563 6.563 0 0.512 0.056 1.012 0.169 1.494-5.456-0.275-10.294-2.888-13.531-6.862-0.563 0.969-0.887 2.1-0.887 3.3 0 2.275 1.156 4.287 2.919 5.463-1.075-0.031-2.087-0.331-2.975-0.819 0 0.025 0 0.056 0 0.081 0 3.181 2.263 5.838 5.269 6.437-0.55 0.15-1.131 0.231-1.731 0.231-0.425 0-0.831-0.044-1.237-0.119 0.838 2.606 3.263 4.506 6.131 4.563-2.25 1.762-5.075 2.813-8.156 2.813-0.531 0-1.050-0.031-1.569-0.094 2.913 1.869 6.362 2.95 10.069 2.95 12.075 0 18.681-10.006 18.681-18.681 0-0.287-0.006-0.569-0.019-0.85 1.281-0.919 2.394-2.075 3.275-3.394z"></path>
</symbol>
<symbol id="icon-youtube" viewBox="0 0 32 32">
<path d="M31.681 9.6c0 0-0.313-2.206-1.275-3.175-1.219-1.275-2.581-1.281-3.206-1.356-4.475-0.325-11.194-0.325-11.194-0.325h-0.012c0 0-6.719 0-11.194 0.325-0.625 0.075-1.987 0.081-3.206 1.356-0.963 0.969-1.269 3.175-1.269 3.175s-0.319 2.588-0.319 5.181v2.425c0 2.587 0.319 5.181 0.319 5.181s0.313 2.206 1.269 3.175c1.219 1.275 2.819 1.231 3.531 1.369 2.563 0.244 10.881 0.319 10.881 0.319s6.725-0.012 11.2-0.331c0.625-0.075 1.988-0.081 3.206-1.356 0.962-0.969 1.275-3.175 1.275-3.175s0.319-2.587 0.319-5.181v-2.425c-0.006-2.588-0.325-5.181-0.325-5.181zM12.694 20.15v-8.994l8.644 4.513-8.644 4.481z"></path>
</symbol>
</defs>
</svg>
